<svg width="130" height="26" fill="none" xmlns="http://www.w3.org/2000/svg"><path d="M0 .344h6.363c3.997 0 7.287 1.424 7.287 5.94 0 4.342-3.34 6.256-7.166 6.256h-2.12v6.061H0V.344ZM6.265 9.08c2.12 0 3.145-1.006 3.145-2.798 0-1.84-1.172-2.478-3.266-2.478h-1.78V9.08h1.901Zm16.671 5.325h-5.363L16.525 18.6h-4.437L17.72.344h5.216l5.63 18.257h-4.582l-1.048-4.196Zm-.83-3.386-.39-1.548c-.487-1.816-.95-4-1.438-5.865h-.097c-.44 1.914-.927 4.049-1.39 5.865l-.39 1.546h3.705v.002Zm6.261-1.448C28.367 3.486 32.415 0 37.021 0c2.365 0 4.266 1.103 5.508 2.38l-2.292 2.798c-.902-.835-1.851-1.424-3.144-1.424-2.341 0-4.266 2.11-4.266 5.669 0 3.632 1.657 5.742 4.216 5.742 1.438 0 2.608-.734 3.461-1.667l2.291 2.749c-1.535 1.79-3.558 2.699-5.923 2.699-4.605-.002-8.505-3.192-8.505-9.375ZM44.478.344h4.364V7.56h.074l5.14-7.216h4.778L53.35 7.657 59.859 18.6h-4.778l-4.266-7.484-1.975 2.699V18.6h-4.363V.344h.001Zm17.06 0h6.363c3.998 0 7.287 1.424 7.287 5.94 0 4.342-3.34 6.256-7.166 6.256h-2.12v6.061h-4.364V.344Zm6.265 8.735c2.12 0 3.145-1.006 3.145-2.798 0-1.84-1.171-2.478-3.266-2.478h-1.78v5.276h1.901Zm8.675.294C76.478 3.386 79.84 0 84.79 0c4.948 0 8.31 3.412 8.31 9.373 0 5.987-3.363 9.571-8.311 9.571-4.95 0-8.313-3.582-8.313-9.571Zm12.188 0c0-3.534-1.488-5.62-3.875-5.62-2.389 0-3.85 2.086-3.85 5.62 0 3.558 1.461 5.79 3.85 5.79 2.387.002 3.875-2.23 3.875-5.79Zm5.187 6.944 2.463-3.018c1.29 1.106 2.973 1.865 4.411 1.865 1.609 0 2.365-.613 2.365-1.596 0-1.055-.998-1.4-2.56-2.06l-2.315-.982c-1.901-.76-3.681-2.355-3.681-5.005C94.537 2.453 97.266 0 101.119 0c2.096 0 4.314.81 5.899 2.405l-2.17 2.749c-1.193-.909-2.315-1.4-3.729-1.4-1.34 0-2.17.54-2.17 1.522 0 1.007 1.146 1.4 2.755 2.037l2.267.908c2.242.908 3.582 2.43 3.582 5.005 0 3.043-2.535 5.718-6.923 5.718-2.363 0-4.899-.883-6.776-2.627Zm14.065 0 2.462-3.018c1.291 1.106 2.974 1.865 4.412 1.865 1.609 0 2.365-.613 2.365-1.596 0-1.055-.999-1.4-2.56-2.06l-2.315-.982c-1.902-.76-3.682-2.355-3.682-5.005 0-3.068 2.729-5.521 6.582-5.521 2.096 0 4.314.81 5.899 2.405l-2.17 2.749c-1.193-.909-2.315-1.4-3.729-1.4-1.341 0-2.17.54-2.17 1.522 0 1.007 1.145 1.4 2.754 2.037l2.268.908c2.242.908 3.584 2.43 3.584 5.006 0 3.044-2.536 5.719-6.924 5.719-2.364-.002-4.9-.885-6.776-2.629Z" fill="#001E61"/><path d="M123.245 18.6v2.525H61.539l-3.037 4.062h71.499l-6.756-6.587Z" fill="#FF8300"/></svg>