<svg width="130" height="31" fill="none" xmlns="http://www.w3.org/2000/svg"><g clip-path="url(#a)"><path d="M0 6.344h6.363c3.997 0 7.287 1.424 7.287 5.94 0 4.342-3.34 6.256-7.166 6.256h-2.12v6.061H0V6.344Zm6.265 8.735c2.12 0 3.145-1.006 3.145-2.798 0-1.84-1.172-2.478-3.266-2.478h-1.78v5.276h1.901Zm16.673 5.326h-5.363L16.527 24.6H12.09l5.632-18.257h5.215L28.568 24.6h-4.582l-1.049-4.196Zm-.83-3.386-.39-1.548c-.487-1.816-.95-4-1.438-5.865h-.097c-.44 1.915-.927 4.049-1.39 5.865l-.39 1.546h3.705v.002Zm6.259-1.448C28.367 9.486 32.415 6 37.021 6c2.365 0 4.266 1.103 5.508 2.38l-2.292 2.798c-.902-.835-1.851-1.424-3.144-1.424-2.341 0-4.266 2.11-4.266 5.669 0 3.632 1.657 5.743 4.216 5.743 1.438 0 2.608-.736 3.461-1.669l2.291 2.75c-1.535 1.79-3.558 2.699-5.923 2.699-4.605-.002-8.505-3.192-8.505-9.375Zm16.111-9.227h4.364v7.215h.074l5.141-7.215h4.778l-5.484 7.313L59.859 24.6h-4.778l-4.266-7.484-1.975 2.699V24.6h-4.363V6.344h.001Zm17.062 0h6.362c3.998 0 7.287 1.424 7.287 5.94 0 4.342-3.34 6.256-7.166 6.256h-2.12v6.061h-4.364V6.344Zm6.264 8.735c2.12 0 3.145-1.006 3.145-2.798 0-1.84-1.171-2.478-3.266-2.478h-1.78v5.276h1.901Zm8.673.294C76.477 9.386 79.84 6 84.789 6c4.948 0 8.311 3.412 8.311 9.373 0 5.987-3.363 9.571-8.311 9.571-4.949 0-8.312-3.582-8.312-9.571Zm12.188 0c0-3.534-1.488-5.62-3.875-5.62-2.389 0-3.85 2.086-3.85 5.62 0 3.558 1.462 5.79 3.85 5.79 2.387.003 3.875-2.23 3.875-5.79Zm5.187 6.944 2.462-3.018c1.29 1.106 2.973 1.865 4.411 1.865 1.609 0 2.365-.613 2.365-1.596 0-1.055-.998-1.4-2.56-2.06l-2.315-.982c-1.901-.76-3.681-2.354-3.681-5.005C94.536 8.453 97.264 6 101.117 6c2.096 0 4.314.81 5.899 2.405l-2.17 2.749c-1.193-.909-2.315-1.4-3.729-1.4-1.34 0-2.17.54-2.17 1.522 0 1.007 1.146 1.4 2.755 2.037l2.267.908c2.242.908 3.582 2.43 3.582 5.005 0 3.043-2.535 5.718-6.923 5.718-2.363 0-4.899-.883-6.776-2.627Zm14.066 0 2.462-3.018c1.291 1.106 2.974 1.865 4.412 1.865 1.609 0 2.365-.613 2.365-1.596 0-1.055-.999-1.4-2.56-2.06l-2.315-.982c-1.902-.76-3.682-2.354-3.682-5.005 0-3.068 2.729-5.521 6.582-5.521 2.096 0 4.314.81 5.899 2.405l-2.17 2.749c-1.193-.909-2.315-1.4-3.729-1.4-1.341 0-2.17.54-2.17 1.522 0 1.007 1.145 1.4 2.754 2.037l2.268.908c2.242.908 3.584 2.43 3.584 5.006 0 3.044-2.536 5.719-6.924 5.719-2.364-.002-4.9-.885-6.776-2.629Z" fill="#001E61"/><path d="M123.247 24.6v2.525H61.541l-3.037 4.062h71.499l-6.756-6.587Z" fill="#FF8300"/></g><defs><clipPath id="a"><path fill="#fff" d="M0 0h130v31H0z"/></clipPath></defs></svg>