<svg width="130" height="31" viewBox="0 0 130 31" fill="none" xmlns="http://www.w3.org/2000/svg">
<g clip-path="url(#clip0_1513_12)">
<path d="M0 6.34424H6.36261C10.3604 6.34424 13.6503 7.76783 13.6503 12.2831C13.6503 16.6261 10.3108 18.5403 6.48401 18.5403H4.36371V24.6014H0V6.34424ZM6.26514 15.0786C8.38544 15.0786 9.40968 14.0733 9.40968 12.2813C9.40968 10.4412 8.23839 9.80253 6.14374 9.80253H4.36371V15.0786H6.26514Z" fill="white"/>
<path d="M22.9375 20.4046H17.5752L16.527 24.6014H12.0898L17.7223 6.34424H22.9375L28.5683 24.6014H23.9857L22.9375 20.4046ZM22.1082 17.0186L21.7183 15.4711C21.231 13.655 20.7676 11.4706 20.2803 9.60629H20.1828C19.7434 11.5205 19.2561 13.655 18.7927 15.4711L18.4028 17.0169H22.1082V17.0186Z" fill="white"/>
<path d="M28.3672 15.571C28.3672 9.48583 32.4146 6 37.0211 6C39.3859 6 41.2873 7.10342 42.5287 8.38069L40.2374 11.178C39.3346 10.3431 38.3856 9.75437 37.0929 9.75437C34.752 9.75437 32.8267 11.8648 32.8267 15.4229C32.8267 19.0551 34.4836 21.1655 37.0433 21.1655C38.4814 21.1655 39.6509 20.4305 40.5042 19.4975L42.7955 22.2466C41.26 24.0368 39.2371 24.9457 36.8723 24.9457C32.2675 24.944 28.3672 21.7542 28.3672 15.571Z" fill="white"/>
<path d="M44.4783 6.34424H48.842V13.5586H48.9155L54.0572 6.34424H58.8348L53.351 13.6567L59.859 24.6014H55.0815L50.8152 17.1167L48.8403 19.8159V24.6014H44.4766V6.34424H44.4783Z" fill="white"/>
<path d="M61.5391 6.34424H67.9017C71.8995 6.34424 75.1894 7.76783 75.1894 12.2831C75.1894 16.6261 71.8499 18.5403 68.0231 18.5403H65.9028V24.6014H61.5391V6.34424ZM67.8042 15.0786C69.9245 15.0786 70.9488 14.0733 70.9488 12.2813C70.9488 10.4412 69.7775 9.80253 67.6828 9.80253H65.9028V15.0786H67.8042Z" fill="white"/>
<path d="M76.4766 15.373C76.4766 9.38599 79.84 6 84.7886 6C89.7371 6 93.1005 9.41181 93.1005 15.373C93.1005 21.36 89.7371 24.944 84.7886 24.944C79.84 24.944 76.4766 21.3618 76.4766 15.373ZM88.6649 15.373C88.6649 11.839 87.1773 9.75265 84.7903 9.75265C82.4015 9.75265 80.9395 11.839 80.9395 15.373C80.9395 18.9311 82.4015 21.1638 84.7903 21.1638C87.1773 21.1655 88.6649 18.9329 88.6649 15.373Z" fill="white"/>
<path d="M93.8516 22.3171L96.3139 19.2995C97.6049 20.4047 99.2874 21.1638 100.725 21.1638C102.334 21.1638 103.09 20.551 103.09 19.5681C103.09 18.5128 102.092 18.1686 100.53 17.5075L98.2153 16.5264C96.3139 15.7655 94.5339 14.1715 94.5339 11.5205C94.5356 8.45299 97.2646 6 101.117 6C103.213 6 105.431 6.80906 107.016 8.40479L104.846 11.1539C103.653 10.245 102.531 9.75437 101.117 9.75437C99.7765 9.75437 98.9472 10.2949 98.9472 11.2761C98.9472 12.2831 100.093 12.6756 101.702 13.3125L103.969 14.2214C106.211 15.1286 107.551 16.6503 107.551 19.2255C107.551 22.2689 105.016 24.944 100.628 24.944C98.2649 24.944 95.7291 24.0609 93.8516 22.3171Z" fill="white"/>
<path d="M107.918 22.3171L110.38 19.2995C111.671 20.4047 113.354 21.1638 114.792 21.1638C116.401 21.1638 117.157 20.551 117.157 19.5681C117.157 18.5128 116.158 18.1686 114.597 17.5075L112.282 16.5264C110.38 15.7655 108.6 14.1715 108.6 11.5205C108.6 8.45299 111.329 6 115.182 6C117.278 6 119.496 6.80906 121.081 8.40479L118.911 11.1539C117.718 10.245 116.596 9.75437 115.182 9.75437C113.841 9.75437 113.012 10.2949 113.012 11.2761C113.012 12.2831 114.157 12.6756 115.766 13.3125L118.034 14.2214C120.276 15.1286 121.618 16.6503 121.618 19.2272C121.618 22.2707 119.082 24.9457 114.694 24.9457C112.33 24.944 109.794 24.0609 107.918 22.3171Z" fill="white"/>
<path d="M123.247 24.5996V27.1249H61.5407L58.5039 31.1874H123.247H124.818H130.003L123.247 24.5996Z" fill="#FF8300"/>
</g>
<defs>
<clipPath id="clip0_1513_12">
<rect width="130" height="31" fill="white"/>
</clipPath>
</defs>
</svg>
