<svg width="130" height="26" viewBox="0 0 130 26" fill="none" xmlns="http://www.w3.org/2000/svg">
<path d="M0 0.344238H6.36261C10.3604 0.344238 13.6503 1.76783 13.6503 6.28306C13.6503 10.6261 10.3108 12.5403 6.48401 12.5403H4.36371V18.6014H0V0.344238ZM6.26514 9.07861C8.38544 9.07861 9.40968 8.07332 9.40968 6.28134C9.40968 4.44117 8.23839 3.80253 6.14374 3.80253H4.36371V9.07861H6.26514Z" fill="#001E61"/>
<path d="M22.9356 14.4046H17.5733L16.5251 18.6014H12.0879L17.7204 0.344238H22.9356L28.5664 18.6014H23.9838L22.9356 14.4046ZM22.1063 11.0186L21.7164 9.47109C21.2291 7.65502 20.7657 5.47056 20.2784 3.60629H20.1809C19.7415 5.52048 19.2542 7.65502 18.7908 9.47109L18.4009 11.0169H22.1063V11.0186Z" fill="#001E61"/>
<path d="M28.3672 9.57097C28.3672 3.48583 32.4146 0 37.0211 0C39.3859 0 41.2873 1.10342 42.5287 2.38069L40.2374 5.17797C39.3346 4.34309 38.3856 3.75437 37.0929 3.75437C34.752 3.75437 32.8267 5.8648 32.8267 9.42293C32.8267 13.0551 34.4836 15.1655 37.0433 15.1655C38.4814 15.1655 39.6509 14.4305 40.5042 13.4975L42.7955 16.2466C41.26 18.0368 39.2371 18.9457 36.8723 18.9457C32.2675 18.944 28.3672 15.7542 28.3672 9.57097Z" fill="#001E61"/>
<path d="M44.4783 0.344238H48.842V7.55862H48.9155L54.0572 0.344238H58.8348L53.351 7.65674L59.859 18.6014H55.0815L50.8152 11.1167L48.8403 13.8159V18.6014H44.4766V0.344238H44.4783Z" fill="#001E61"/>
<path d="M61.5381 0.344238H67.9007C71.8985 0.344238 75.1884 1.76783 75.1884 6.28306C75.1884 10.6261 71.8489 12.5403 68.0221 12.5403H65.9018V18.6014H61.5381V0.344238ZM67.8032 9.07861C69.9235 9.07861 70.9478 8.07332 70.9478 6.28134C70.9478 4.44117 69.7765 3.80253 67.6818 3.80253H65.9018V9.07861H67.8032Z" fill="#001E61"/>
<path d="M76.4775 9.37301C76.4775 3.38599 79.8409 0 84.7895 0C89.738 0 93.1014 3.41181 93.1014 9.37301C93.1014 15.36 89.738 18.944 84.7895 18.944C79.8409 18.944 76.4775 15.3618 76.4775 9.37301ZM88.6658 9.37301C88.6658 5.83898 87.1782 3.75265 84.7912 3.75265C82.4024 3.75265 80.9404 5.83898 80.9404 9.37301C80.9404 12.9311 82.4024 15.1638 84.7912 15.1638C87.1782 15.1655 88.6658 12.9329 88.6658 9.37301Z" fill="#001E61"/>
<path d="M93.8535 16.3171L96.3158 13.2995C97.6068 14.4047 99.2893 15.1638 100.727 15.1638C102.336 15.1638 103.092 14.551 103.092 13.5681C103.092 12.5128 102.094 12.1686 100.532 11.5075L98.2172 10.5264C96.3158 9.76549 94.5358 8.17148 94.5358 5.52052C94.5375 2.45299 97.2665 0 101.119 0C103.215 0 105.433 0.809057 107.018 2.40479L104.848 5.15387C103.655 4.24497 102.533 3.75437 101.119 3.75437C99.7784 3.75437 98.9491 4.29489 98.9491 5.27609C98.9491 6.2831 100.095 6.67558 101.704 7.3125L103.971 8.2214C106.213 9.12857 107.553 10.6503 107.553 13.2255C107.553 16.2689 105.018 18.944 100.63 18.944C98.2668 18.944 95.731 18.0609 93.8535 16.3171Z" fill="#001E61"/>
<path d="M107.918 16.3171L110.38 13.2995C111.671 14.4047 113.354 15.1638 114.792 15.1638C116.401 15.1638 117.157 14.551 117.157 13.5681C117.157 12.5128 116.158 12.1686 114.597 11.5075L112.282 10.5264C110.38 9.76549 108.6 8.17148 108.6 5.52052C108.6 2.45299 111.329 0 115.182 0C117.278 0 119.496 0.809057 121.081 2.40479L118.911 5.15387C117.718 4.24497 116.596 3.75437 115.182 3.75437C113.841 3.75437 113.012 4.29489 113.012 5.27609C113.012 6.2831 114.157 6.67558 115.766 7.3125L118.034 8.2214C120.276 9.12857 121.618 10.6503 121.618 13.2272C121.618 16.2707 119.082 18.9457 114.694 18.9457C112.33 18.944 109.794 18.0609 107.918 16.3171Z" fill="#001E61"/>
<path d="M123.245 18.5996V21.1249H61.5388L58.502 25.1874H123.245H124.816H130.001L123.245 18.5996Z" fill="#FF8300"/>
</svg>
